<svg xmlns="http://www.w3.org/2000/svg" width="512" height="512" viewBox="0 0 512 512" role="img" aria-label="Movie">
  <defs>
    <linearGradient id="g" x1="0" y1="0" x2="1" y2="1">
      <stop offset="0" stop-color="#111827"/>
      <stop offset="1" stop-color="#374151"/>
    </linearGradient>
  </defs>
  <rect x="32" y="32" width="448" height="448" rx="72" fill="url(#g)"/>
  <rect x="92" y="120" width="328" height="272" rx="24" fill="#0b63ce" opacity="0.18"/>
  <path d="M208 188h120c22 0 40 18 40 40v56c0 22-18 40-40 40H208c-22 0-40-18-40-40v-56c0-22 18-40 40-40z" fill="#fff" opacity="0.9"/>
  <path d="M230 216l94 40-94 40z" fill="#111827" opacity="0.85"/>
  <path d="M110 110h292v22H110zM110 380h292v22H110z" fill="#fff" opacity="0.35"/>
</svg>
