<svg xmlns="http://www.w3.org/2000/svg" width="512" height="512" viewBox="0 0 512 512" role="img" aria-label="Novel">
  <defs>
    <linearGradient id="g" x1="0" y1="0" x2="1" y2="1">
      <stop offset="0" stop-color="#111827"/>
      <stop offset="1" stop-color="#334155"/>
    </linearGradient>
  </defs>
  <rect x="32" y="32" width="448" height="448" rx="72" fill="url(#g)"/>
  <path d="M156 140h196c18 0 32 14 32 32v212c0 18-14 32-32 32H156c-18 0-32-14-32-32V172c0-18 14-32 32-32z" fill="#fff" opacity="0.92"/>
  <path d="M186 188h136v18H186zM186 232h168v18H186zM186 276h152v18H186zM186 320h120v18H186z" fill="#111827" opacity="0.55"/>
  <rect x="124" y="140" width="30" height="276" rx="14" fill="#0b63ce" opacity="0.55"/>
</svg>
